<svg width="101" height="34" viewBox="0 0 101 34" fill="none" xmlns="http://www.w3.org/2000/svg">
<path d="M92.6968 0H8.02502C7.71638 0 7.41144 0 7.10362 0.00164378C6.84595 0.00328755 6.59032 0.00821972 6.33018 0.0123287C5.77003 0.0263021 5.20289 0.0608239 4.64356 0.1611C4.08012 0.259733 3.55655 0.428231 3.04365 0.688786C2.5398 0.946875 2.07951 1.28223 1.68129 1.68087C1.27853 2.07951 0.944828 2.54144 0.689618 3.04528C0.427827 3.55735 0.261795 4.0834 0.163573 4.64725C0.0620632 5.20452 0.0271315 5.76838 0.0127474 6.33223C0.0049384 6.59032 0.00411693 6.84923 0 7.10732C0 7.41226 0 7.71802 0 8.02624V25.6412C0 25.952 0 26.256 0 26.5618C0.00411693 26.8232 0.0049384 27.0763 0.0127474 27.3378C0.0271315 27.9016 0.0620632 28.4654 0.163573 29.0227C0.261795 29.5865 0.427827 30.1151 0.689618 30.6255C0.944828 31.1269 1.27853 31.5888 1.68129 31.9842C2.07951 32.3861 2.5398 32.7206 3.04365 32.9762C3.55655 33.2393 4.08012 33.4053 4.64356 33.5072C5.20289 33.6075 5.77003 33.6404 6.33018 33.656C6.59032 33.6617 6.84595 33.665 7.10362 33.665C7.41144 33.6667 7.71638 33.6667 8.02502 33.6667H92.6968C92.9993 33.6667 93.3066 33.6667 93.6091 33.665C93.8656 33.665 94.1286 33.6617 94.3851 33.656C94.9489 33.6404 95.5144 33.6075 96.0684 33.5072C96.6322 33.4053 97.1566 33.2393 97.6745 32.9762C98.1775 32.7206 98.6378 32.3861 99.0356 31.9842C99.4367 31.5888 99.7704 31.1269 100.03 30.6255C100.288 30.1151 100.456 29.5865 100.551 29.0227C100.655 28.4654 100.688 27.9016 100.707 27.3378C100.711 27.0763 100.711 26.8232 100.711 26.5618C100.717 26.256 100.717 25.952 100.717 25.6412V8.02624C100.717 7.71802 100.717 7.41226 100.711 7.10732C100.711 6.84923 100.711 6.59032 100.707 6.33223C100.688 5.76838 100.655 5.20452 100.551 4.64725C100.456 4.0834 100.288 3.55735 100.03 3.04528C99.7704 2.54144 99.4367 2.07951 99.0356 1.68087C98.6378 1.28223 98.1775 0.946875 97.6745 0.688786C97.1566 0.428231 96.6322 0.259733 96.0684 0.1611C95.5144 0.0608239 94.9489 0.0263021 94.3851 0.0123287C94.1286 0.00821972 93.8656 0.00328755 93.6091 0.00164378C93.3066 0 92.9993 0 92.6968 0Z" fill="black"/>
<path d="M7.10728 32.9302C6.85084 32.9302 6.60056 32.9269 6.34617 32.9212C5.87561 32.908 5.31751 32.8817 4.77298 32.7839C4.25927 32.691 3.80267 32.5397 3.37856 32.3228C2.93963 32.1001 2.5451 31.8124 2.20277 31.4671C1.85426 31.1252 1.56782 30.7324 1.34384 30.2917C1.12562 29.8669 0.97643 29.4107 0.886836 28.8969C0.784101 28.3307 0.757799 27.7561 0.746698 27.3188C0.741361 27.1413 0.734375 26.5503 0.734375 26.5503V7.10731C0.734375 7.10731 0.741773 6.52537 0.746698 6.35441C0.757799 5.91344 0.784101 5.33931 0.886018 4.77875C0.976026 4.26216 1.1252 3.8064 1.34343 3.37981C1.56699 2.93843 1.85386 2.54348 2.19784 2.20321C2.54593 1.8547 2.9421 1.5662 3.37814 1.34263C3.81048 1.12317 4.26625 0.973169 4.76969 0.884811C5.33641 0.783301 5.91095 0.757821 6.34822 0.746724L7.10769 0.73645H93.6046L94.3731 0.747135C94.8046 0.757821 95.3791 0.783301 95.9372 0.883986C96.4443 0.972757 96.9031 1.12358 97.3436 1.34509C97.7751 1.5662 98.1704 1.8547 98.5148 2.19991C98.8593 2.54184 99.1477 2.93884 99.3762 3.38187C99.5932 3.81215 99.7412 4.26792 99.8267 4.76971C99.9245 5.30068 99.9548 5.84604 99.9729 6.35811C99.9754 6.59647 99.9754 6.8525 99.9754 7.10731C99.982 7.42294 99.982 7.72335 99.982 8.02623V25.6412C99.982 25.947 99.982 26.2453 99.9754 26.5462C99.9754 26.8199 99.9754 27.0706 99.9721 27.3287C99.9548 27.8243 99.9245 28.3693 99.8283 28.8887C99.7412 29.4049 99.5932 29.8611 99.3738 30.2943C99.1469 30.7315 98.8584 31.1268 98.519 31.4606C98.1713 31.8124 97.7767 32.0992 97.3411 32.3212C96.9047 32.543 96.4592 32.6902 95.9372 32.7839C95.3981 32.8817 94.84 32.908 94.364 32.9212C94.1175 32.9269 93.8593 32.9302 93.6087 32.9302L92.6963 32.9319L7.10728 32.9302Z" fill="white"/>
<path d="M21.0392 16.7402C21.0173 14.3326 23.0105 13.1609 23.1017 13.1061C21.973 11.4602 20.2231 11.2351 19.6085 11.2176C18.1387 11.0634 16.7139 12.0971 15.9649 12.0971C15.2015 12.0971 14.0483 11.2329 12.8066 11.2585C11.2081 11.2833 9.71207 12.2088 8.89169 13.6461C7.19901 16.5767 8.46159 20.8839 10.0831 23.2528C10.8943 24.4128 11.8425 25.7086 13.0831 25.6626C14.2971 25.6123 14.7505 24.8885 16.2159 24.8885C17.6678 24.8885 18.0932 25.6626 19.359 25.6334C20.6617 25.6123 21.4824 24.4683 22.2652 23.2973C23.2027 21.9673 23.5792 20.6576 23.5942 20.5906C23.5639 20.5803 21.064 19.6268 21.0392 16.7402Z" fill="black"/>
<path d="M18.648 9.65965C19.3007 8.84285 19.7475 7.73208 19.6235 6.60449C18.6784 6.6464 17.4964 7.25782 16.8161 8.05706C16.2142 8.76075 15.6761 9.91463 15.8151 10.9991C16.8766 11.0779 17.9666 10.4636 18.648 9.65965Z" fill="black"/>
<path d="M35.6047 22.8425H31.6207L30.664 25.6676H28.9766L32.7501 15.2158H34.5033L38.2768 25.6676H36.5606L35.6047 22.8425ZM32.0334 21.5389H35.1913L33.6345 16.9542H33.5909L32.0334 21.5389Z" fill="black"/>
<path d="M46.428 21.8579C46.428 24.2259 45.1606 25.7473 43.2479 25.7473C42.1621 25.7473 41.2999 25.2615 40.8503 24.4141H40.8142V28.1884H39.25V18.0473H40.764V19.3148H40.7928C41.2276 18.497 42.1547 17.9676 43.2191 17.9676C45.1532 17.9676 46.428 19.4964 46.428 21.8579ZM44.8203 21.8579C44.8203 20.3151 44.023 19.3008 42.8065 19.3008C41.6114 19.3008 40.8076 20.3365 40.8076 21.8579C40.8076 23.3932 41.6114 24.4215 42.8065 24.4215C44.023 24.4215 44.8203 23.4146 44.8203 21.8579Z" fill="black"/>
<path d="M54.8151 21.8579C54.8151 24.2259 53.5473 25.7473 51.6346 25.7473C50.5489 25.7473 49.6866 25.2615 49.237 24.4141H49.2009V28.1884H47.6367V18.0473H49.1507V19.3148H49.1795C49.6143 18.497 50.5415 17.9676 51.6059 17.9676C53.5399 17.9676 54.8151 19.4964 54.8151 21.8579ZM53.207 21.8579C53.207 20.3151 52.4097 19.3008 51.1933 19.3008C49.9982 19.3008 49.1943 20.3365 49.1943 21.8579C49.1943 23.3932 49.9982 24.4215 51.1933 24.4215C52.4097 24.4215 53.207 23.4146 53.207 21.8579Z" fill="black"/>
<path d="M60.357 22.7554C60.4729 23.7919 61.4798 24.4724 62.8557 24.4724C64.1741 24.4724 65.1226 23.7919 65.1226 22.8573C65.1226 22.0461 64.5505 21.5603 63.196 21.2274L61.8414 20.9011C59.9222 20.4375 59.0312 19.54 59.0312 18.0835C59.0312 16.2802 60.6028 15.0415 62.8335 15.0415C65.0429 15.0415 66.5569 16.2802 66.6079 18.0835H65.0289C64.9344 17.0405 64.0722 16.4109 62.8121 16.4109C61.5521 16.4109 60.6899 17.0479 60.6899 17.975C60.6899 18.7139 61.2406 19.1487 62.5877 19.4816L63.7393 19.7644C65.8837 20.2715 66.7739 21.1329 66.7739 22.6617C66.7739 24.6171 65.2171 25.8418 62.7398 25.8418C60.4219 25.8418 58.857 24.6459 58.7559 22.7554H60.357Z" fill="black"/>
<path d="M70.1502 16.244V18.0473H71.5993V19.286H70.1502V23.4869C70.1502 24.1395 70.4404 24.4437 71.0774 24.4437C71.2368 24.4437 71.4908 24.4215 71.5919 24.4075V25.6388C71.4185 25.6823 71.0708 25.7111 70.7231 25.7111C69.1803 25.7111 68.5787 25.1316 68.5787 23.6538V19.286H67.4707V18.0473H68.5787V16.244H70.1502Z" fill="black"/>
<path d="M72.4375 21.8579C72.4375 19.4603 73.8496 17.9536 76.0516 17.9536C78.2609 17.9536 79.6665 19.4603 79.6665 21.8579C79.6665 24.262 78.2683 25.7621 76.0516 25.7621C73.8356 25.7621 72.4375 24.262 72.4375 21.8579ZM78.0727 21.8579C78.0727 20.2132 77.319 19.2424 76.0516 19.2424C74.7841 19.2424 74.0304 20.2206 74.0304 21.8579C74.0304 23.5091 74.7841 24.4725 76.0516 24.4725C77.319 24.4725 78.0727 23.5091 78.0727 21.8579Z" fill="black"/>
<path d="M80.957 18.0473H82.4489V19.3444H82.485C82.7242 18.4822 83.4196 17.9676 84.3179 17.9676C84.5423 17.9676 84.7306 17.9972 84.8538 18.026V19.489C84.7306 19.4381 84.4552 19.3945 84.1511 19.3945C83.1442 19.3945 82.5212 20.0759 82.5212 21.1477V25.6676H80.957V18.0473Z" fill="black"/>
<path d="M92.0653 23.4294C91.8549 24.8127 90.5077 25.7621 88.7841 25.7621C86.5673 25.7621 85.1914 24.2768 85.1914 21.894C85.1914 19.5038 86.5747 17.9536 88.7184 17.9536C90.8266 17.9536 92.1524 19.4019 92.1524 21.7124V22.2483H86.7704V22.3428C86.7704 23.6464 87.589 24.5012 88.8203 24.5012C89.6891 24.5012 90.3705 24.0886 90.58 23.4294H92.0653ZM86.7778 21.1551H90.5874C90.5513 19.9888 89.805 19.2211 88.7184 19.2211C87.6391 19.2211 86.8575 20.0036 86.7778 21.1551Z" fill="black"/>
<path d="M31.9923 7.34854C32.9737 7.34854 33.6485 8.02705 33.6485 9.02242C33.6485 10.0038 32.9531 10.679 31.9676 10.679H30.8054V12.3706H30.0254V7.34854H31.9923ZM30.8054 9.99354H31.7868C32.4583 9.99354 32.852 9.64545 32.852 9.02242C32.852 8.38542 32.4723 8.03733 31.7868 8.03733H30.8054V9.99354Z" fill="black"/>
<path d="M34.6719 8.58064H35.3919V9.16175H35.4478C35.5555 8.78941 35.9763 8.51776 36.4711 8.51776C36.5821 8.51776 36.7251 8.52804 36.8048 8.54899V9.2871C36.7423 9.26614 36.5196 9.24189 36.3873 9.24189C35.8201 9.24189 35.4198 9.60026 35.4198 10.1329V12.3706H34.6719V8.58064Z" fill="black"/>
<path d="M40.7367 11.3473C40.5666 12.0262 39.9608 12.4437 39.0945 12.4437C38.0087 12.4437 37.3438 11.6991 37.3438 10.4875C37.3438 9.2764 38.0227 8.50748 39.0912 8.50748C40.1457 8.50748 40.7819 9.22791 40.7819 10.4181V10.679H38.1057V10.721C38.1303 11.3855 38.5167 11.8067 39.115 11.8067C39.5679 11.8067 39.8778 11.6432 40.0167 11.3473H40.7367ZM38.1057 10.1259H40.02C40.0027 9.53079 39.6411 9.14407 39.0871 9.14407C38.5339 9.14407 38.1476 9.53408 38.1057 10.1259Z" fill="black"/>
<path d="M41.7988 10.714V9.97958H44.0822V10.714H41.7988Z" fill="black"/>
<path d="M45.0957 10.474C45.0957 9.25215 45.7779 8.50748 46.8842 8.50748C47.9881 8.50748 48.6703 9.25215 48.6703 10.474C48.6703 11.7024 47.9914 12.4437 46.8842 12.4437C45.7746 12.4437 45.0957 11.7024 45.0957 10.474ZM47.901 10.474C47.901 9.65244 47.5319 9.17202 46.8842 9.17202C46.2341 9.17202 45.8683 9.65244 45.8683 10.474C45.8683 11.3021 46.2341 11.7788 46.8842 11.7788C47.5319 11.7788 47.901 11.2988 47.901 10.474Z" fill="black"/>
<path d="M49.6758 8.58064H50.3958V9.16175H50.4517C50.5594 8.78941 50.9802 8.51776 51.475 8.51776C51.586 8.51776 51.729 8.52804 51.8087 8.54899V9.2871C51.7462 9.26614 51.5235 9.24189 51.3912 9.24189C50.824 9.24189 50.4237 9.60026 50.4237 10.1329V12.3706H49.6758V8.58064Z" fill="black"/>
<path d="M52.3496 10.474C52.3496 9.2764 52.9652 8.51775 53.9228 8.51775C54.4414 8.51775 54.8799 8.76474 55.0854 9.1827H55.1413V7.10114H55.8893V12.3706H55.1726V11.7718H55.1134C54.8873 12.1861 54.4447 12.4331 53.9228 12.4331C52.9587 12.4331 52.3496 11.6744 52.3496 10.474ZM53.1222 10.474C53.1222 11.2778 53.5011 11.7615 54.1349 11.7615C54.7657 11.7615 55.1553 11.2708 55.1553 10.4773C55.1553 9.68737 54.7616 9.18969 54.1349 9.18969C53.5053 9.18969 53.1222 9.67668 53.1222 10.474Z" fill="black"/>
<path d="M60.3227 11.3473C60.1525 12.0262 59.5467 12.4437 58.6804 12.4437C57.5946 12.4437 56.9297 11.6991 56.9297 10.4875C56.9297 9.2764 57.6086 8.50748 58.6771 8.50748C59.7317 8.50748 60.3679 9.22791 60.3679 10.4181V10.679H57.6916V10.721C57.7163 11.3855 58.1026 11.8067 58.701 11.8067C59.1539 11.8067 59.4637 11.6432 59.6026 11.3473H60.3227ZM57.6916 10.1259H59.6059C59.5887 9.53079 59.227 9.14407 58.673 9.14407C58.1199 9.14407 57.7335 9.53408 57.6916 10.1259Z" fill="black"/>
<path d="M61.3711 8.58064H62.0911V9.16175H62.147C62.2547 8.78941 62.6755 8.51776 63.1703 8.51776C63.2813 8.51776 63.4243 8.52804 63.504 8.54899V9.2871C63.4416 9.26614 63.2188 9.24189 63.0865 9.24189C62.5193 9.24189 62.1191 9.60026 62.1191 10.1329V12.3706H61.3711V8.58064Z" fill="black"/>
<path d="M66.1992 10.474C66.1992 9.25215 66.8814 8.50748 67.9878 8.50748C69.0916 8.50748 69.7738 9.25215 69.7738 10.474C69.7738 11.7024 69.0949 12.4437 67.9878 12.4437C66.8781 12.4437 66.1992 11.7024 66.1992 10.474ZM69.0045 10.474C69.0045 9.65244 68.6354 9.17202 67.9878 9.17202C67.3376 9.17202 66.9718 9.65244 66.9718 10.474C66.9718 11.3021 67.3376 11.7788 67.9878 11.7788C68.6354 11.7788 69.0045 11.2988 69.0045 10.474Z" fill="black"/>
<path d="M70.7773 8.58063H71.4974V9.1827H71.5533C71.7374 8.76146 72.1138 8.50748 72.6842 8.50748C73.53 8.50748 73.9961 9.01544 73.9961 9.9171V12.3706H73.2481V10.1049C73.2481 9.49586 72.9834 9.19297 72.4303 9.19297C71.8771 9.19297 71.5253 9.56203 71.5253 10.1534V12.3706H70.7773V8.58063Z" fill="black"/>
<path d="M78.2215 7.63705V8.5979H79.0427V9.22792H78.2215V11.1767C78.2215 11.5737 78.3851 11.7476 78.7574 11.7476C78.8725 11.7476 78.9383 11.7406 79.0427 11.7303V12.3533C78.921 12.3739 78.7821 12.3916 78.6358 12.3916C77.804 12.3916 77.4728 12.099 77.4728 11.3683V9.22792H76.8711V8.5979H77.4728V7.63705H78.2215Z" fill="black"/>
<path d="M80.0645 7.10114H80.8058V9.18969H80.865C81.0491 8.76474 81.4494 8.51076 82.0207 8.51076C82.8278 8.51076 83.3259 9.02242 83.3259 9.92368V12.3706H82.5771V10.1082C82.5771 9.50284 82.2952 9.19626 81.7667 9.19626C81.1535 9.19626 80.8124 9.58298 80.8124 10.1571V12.3706H80.0645V7.10114Z" fill="black"/>
<path d="M87.6879 11.3473C87.5177 12.0262 86.912 12.4437 86.0457 12.4437C84.9599 12.4437 84.2949 11.6991 84.2949 10.4875C84.2949 9.2764 84.9738 8.50748 86.0424 8.50748C87.0969 8.50748 87.7331 9.22791 87.7331 10.4181V10.679H85.0569V10.721C85.0815 11.3855 85.4678 11.8067 86.0662 11.8067C86.5191 11.8067 86.829 11.6432 86.9679 11.3473H87.6879ZM85.0569 10.1259H86.9712C86.9539 9.53079 86.5922 9.14407 86.0383 9.14407C85.4851 9.14407 85.0988 9.53408 85.0569 10.1259Z" fill="black"/>
</svg>
