<svg width="160" height="32" viewBox="0 0 160 32" fill="none" xmlns="http://www.w3.org/2000/svg">
<path d="M10.7175 13.3628L16.894 7.18881L23.0731 13.3679L26.665 9.77346L16.894 0L7.12305 9.77095L10.7175 13.3628Z" fill="#F3BA2F"/>
<path d="M0.990234 15.9016L4.58333 12.3085L8.17642 15.9016L4.58333 19.4947L0.990234 15.9016Z" fill="#F3BA2F"/>
<path d="M10.7186 18.4392L16.8951 24.6158L23.0742 18.4367L26.6686 22.0261L26.6661 22.0286L16.8951 31.8021L7.12416 22.0336L7.11914 22.0286L10.7186 18.4392Z" fill="#F3BA2F"/>
<path d="M25.6055 15.9024L29.1986 12.3093L32.7917 15.9024L29.1986 19.4955L25.6055 15.9024Z" fill="#F3BA2F"/>
<path d="M20.5384 15.8998L16.8938 12.2526L14.1986 14.9478L13.8872 15.2568L13.2492 15.8948L13.2441 15.8998L13.2492 15.9073L16.8938 19.5494L20.5384 15.9023L20.541 15.8998H20.5384Z" fill="#F3BA2F"/>
<path d="M38.3984 7.70624H46.2152C48.1543 7.70624 49.6212 8.2086 50.6159 9.21333C50.9906 9.58446 51.2861 10.0279 51.4843 10.5166C51.6825 11.0054 51.7793 11.5294 51.7688 12.0567V12.1044C51.7756 12.5364 51.7154 12.9668 51.5905 13.3804C51.4792 13.7365 51.3177 14.0748 51.1107 14.3851C50.9178 14.6778 50.6844 14.9417 50.4175 15.1688C50.1566 15.3933 49.8709 15.5872 49.566 15.7466C50.4455 16.0529 51.2364 16.5704 51.8693 17.2536C52.4286 17.89 52.7082 18.7691 52.7082 19.891V19.9388C52.7241 20.6395 52.5717 21.3337 52.2636 21.9633C51.9652 22.5433 51.5276 23.0404 50.9902 23.4101C50.3825 23.8175 49.7059 24.1111 48.9933 24.2767C48.1466 24.4774 47.2787 24.5744 46.4086 24.5655H38.3984V7.70624ZM45.4315 14.5233C46.1078 14.556 46.7808 14.4105 47.3832 14.1013C47.6181 13.9641 47.8099 13.7638 47.9369 13.5232C48.0638 13.2826 48.1209 13.0113 48.1016 12.7399V12.6922C48.114 12.4421 48.0632 12.193 47.9539 11.9678C47.8446 11.7426 47.6803 11.5485 47.4761 11.4036C47.0592 11.1072 46.4572 10.959 45.6701 10.959H42.0129V14.5233H45.4315ZM46.4187 21.3178C47.0924 21.3555 47.7631 21.2013 48.3528 20.8732C48.5825 20.7256 48.7684 20.5191 48.8912 20.2752C49.014 20.0314 49.0692 19.7591 49.051 19.4866V19.4389C49.0601 19.18 49.0055 18.9228 48.8921 18.6898C48.7787 18.4568 48.6099 18.2552 48.4005 18.1026C47.9684 17.7677 47.2702 17.6003 46.3056 17.6003H42.0129V21.3178H46.4187Z" fill="#F3BA2F"/>
<path d="M57.3652 7.70624H61.0752V24.5706H57.3652V7.70624Z" fill="#F3BA2F"/>
<path d="M66.6895 7.70624H70.1105L78.0177 18.085V7.70624H81.68V24.5706H78.5226L70.3567 13.8501V24.5706H66.6895V7.70624Z" fill="#F3BA2F"/>
<path d="M92.9126 7.58566H96.3287L103.555 24.5705H99.6819L98.1397 20.7878H91.0086L89.4664 24.5705H85.6836L92.9126 7.58566ZM96.816 17.5123L94.5704 12.0416L92.3349 17.5123H96.816Z" fill="#F3BA2F"/>
<path d="M107.564 7.70624H110.986L118.888 18.085V7.70624H122.55V24.5706H119.393L111.227 13.8501V24.5706H107.564V7.70624Z" fill="#F3BA2F"/>
<path d="M135.905 24.8669C134.723 24.8771 133.55 24.6481 132.459 24.1938C131.431 23.7694 130.499 23.1437 129.717 22.3534C128.934 21.5631 128.318 20.6242 127.905 19.5921C127.468 18.5126 127.247 17.3581 127.254 16.1936V16.1459C127.235 13.8507 128.118 11.6397 129.713 9.98947C130.498 9.18337 131.438 8.54428 132.476 8.11063C133.606 7.64284 134.818 7.40954 136.041 7.42491C136.763 7.41951 137.485 7.48429 138.196 7.61832C138.804 7.73327 139.398 7.91088 139.969 8.14831C140.487 8.36649 140.98 8.6411 141.438 8.96716C141.886 9.28517 142.306 9.63971 142.694 10.0271L140.336 12.75C139.733 12.1939 139.057 11.7232 138.326 11.3509C137.609 11.0077 136.821 10.8357 136.025 10.8485C135.363 10.8414 134.708 10.9753 134.101 11.2412C133.495 11.5071 132.952 11.899 132.509 12.3908C132.069 12.8813 131.725 13.4495 131.494 14.0661C131.252 14.7178 131.13 15.4081 131.135 16.1032V16.1509C131.133 16.8451 131.254 17.5341 131.494 18.1855C131.722 18.8044 132.063 19.3758 132.499 19.8709C132.939 20.3688 133.48 20.7664 134.087 21.0369C134.693 21.3073 135.351 21.4442 136.015 21.4383C136.861 21.465 137.701 21.2829 138.459 20.9083C139.182 20.5146 139.85 20.0282 140.446 19.4615L142.807 21.8477C142.39 22.3002 141.94 22.7201 141.459 23.1036C140.986 23.4773 140.473 23.7966 139.929 24.0556C139.349 24.3285 138.739 24.5301 138.11 24.6559C137.384 24.8015 136.645 24.8722 135.905 24.8669Z" fill="#F3BA2F"/>
<path d="M147.186 7.70624H159.878V11.0068H150.835V14.4278H158.798V17.7284H150.848V21.27H160.003V24.5706H147.193L147.186 7.70624Z" fill="#F3BA2F"/>
</svg>
