<svg width="115" height="34" viewBox="0 0 115 34" fill="none" xmlns="http://www.w3.org/2000/svg">
<g clip-path="url(#clip0_402_116)">
<path fill-rule="evenodd" clip-rule="evenodd" d="M110.954 34H4.26908C1.91621 34 0 32.0838 0 29.75V4.25C0 1.90773 1.91621 0 4.26908 0H110.954C113.304 0 115.223 1.90773 115.223 4.25V29.75C115.223 32.0838 113.304 34 110.954 34Z" fill="white"/>
<path fill-rule="evenodd" clip-rule="evenodd" d="M110.954 0.680424C112.927 0.680424 114.542 2.28504 114.542 4.25V29.75C114.542 31.715 112.938 33.3196 110.954 33.3196H4.26908C2.29564 33.3196 0.680424 31.715 0.680424 29.75V4.25C0.680424 2.28504 2.28504 0.680424 4.26908 0.680424H110.954ZM110.954 0H4.26908C1.91621 0 0 1.91621 0 4.25V29.75C0 32.0923 1.91621 34 4.26908 34H110.954C113.304 34 115.223 32.0923 115.223 29.75V4.25C115.223 1.91621 113.304 0 110.954 0Z" fill="#A6A6A6"/>
<path d="M60.7 11.2471C59.9305 11.2471 59.2819 10.9779 58.7689 10.448C58.2602 9.9329 57.9761 9.2228 57.9889 8.49786C57.9889 7.72417 58.2517 7.06919 58.7689 6.54986C59.2797 6.01993 59.9284 5.75073 60.6978 5.75073C61.4588 5.75073 62.1074 6.01993 62.6289 6.54986C63.1461 7.08614 63.4089 7.74113 63.4089 8.49786C63.4004 9.27368 63.1376 9.92866 62.6289 10.4459C62.118 10.98 61.4694 11.2471 60.7 11.2471ZM37.8051 11.2471C37.0526 11.2471 36.3997 10.9822 35.8655 10.4586C35.3356 9.93714 35.0664 9.27791 35.0664 8.49998C35.0664 7.72205 35.3356 7.06283 35.8655 6.54138C36.3891 6.01782 37.042 5.75285 37.8051 5.75285C38.1781 5.75285 38.5406 5.82704 38.8882 5.97754C39.2295 6.1238 39.5072 6.32305 39.7128 6.56682L39.7637 6.62829L39.1892 7.19213L39.1299 7.12218C38.8056 6.73639 38.371 6.54774 37.7966 6.54774C37.2836 6.54774 36.8364 6.73003 36.4675 7.09038C36.0966 7.45285 35.9079 7.92767 35.9079 8.5021C35.9079 9.07654 36.0966 9.55136 36.4675 9.91383C36.8364 10.2742 37.2836 10.4565 37.7966 10.4565C38.3435 10.4565 38.8034 10.2742 39.1617 9.91383C39.3736 9.70186 39.5051 9.4051 39.5517 9.02991H37.7097V8.23714H40.3423L40.3529 8.30921C40.372 8.44275 40.3911 8.58053 40.3911 8.70772C40.3911 9.43901 40.1706 10.0304 39.734 10.4671C39.238 10.9843 38.5893 11.2471 37.8051 11.2471ZM68.2461 11.1348H67.4342L64.9478 7.15609L64.969 7.87255V11.1327H64.1572V5.8652H65.0835L65.1089 5.90547L67.447 9.6531L67.4258 8.93876V5.8652H68.2461V11.1348ZM54.5995 11.1348H53.777V6.65796H52.3504V5.8652H56.0239V6.65796H54.5973V11.1348H54.5995ZM51.6806 11.1348H50.8603V5.8652H51.6806V11.1348ZM47.0703 11.1348H46.2499V6.65796H44.8234V5.8652H48.4968V6.65796H47.0703V11.1348ZM44.3041 11.1263H41.1584V5.8652H44.3041V6.65796H41.9809V8.1036H44.0773V8.88789H41.9809V10.3335H44.3041V11.1263ZM59.3709 9.90323C59.7376 10.2699 60.1827 10.4543 60.7 10.4543C61.232 10.4543 61.6665 10.2742 62.029 9.90323C62.3894 9.54288 62.5716 9.07018 62.5716 8.49998C62.5716 7.92979 62.3893 7.45497 62.0311 7.09674C61.6644 6.73003 61.2172 6.54562 60.7021 6.54562C60.17 6.54562 59.7355 6.72579 59.3751 7.09674C59.0148 7.45709 58.8325 7.92979 58.8325 8.49998C58.8325 9.07018 59.0127 9.545 59.3709 9.90323Z" fill="#010101"/>
<path fill-rule="evenodd" clip-rule="evenodd" d="M57.9115 18.4923C55.9084 18.4923 54.2847 20.0121 54.2847 22.1085C54.2847 24.1858 55.919 25.7247 57.9115 25.7247C59.9147 25.7247 61.5383 24.1942 61.5383 22.1085C61.5383 20.0121 59.9147 18.4923 57.9115 18.4923ZM57.9115 24.2918C56.8156 24.2918 55.8724 23.3845 55.8724 22.1C55.8724 20.7964 56.8178 19.9082 57.9115 19.9082C59.0074 19.9082 59.9507 20.7964 59.9507 22.1C59.9528 23.393 59.0074 24.2918 57.9115 24.2918ZM49.9987 18.4923C47.9956 18.4923 46.3719 20.0121 46.3719 22.1085C46.3719 24.1858 48.0062 25.7247 49.9987 25.7247C52.0018 25.7247 53.6255 24.1942 53.6255 22.1085C53.6255 20.0121 51.9997 18.4923 49.9987 18.4923ZM49.9987 24.2918C48.9028 24.2918 47.9595 23.3845 47.9595 22.1C47.9595 20.7964 48.9049 19.9082 49.9987 19.9082C51.0946 19.9082 52.0378 20.7964 52.0378 22.1C52.0378 23.393 51.0946 24.2918 49.9987 24.2918ZM40.583 19.5966V21.127H44.2564C44.1441 21.9855 43.86 22.6193 43.4255 23.0538C42.8871 23.5923 42.0562 24.1773 40.5915 24.1773C38.334 24.1773 36.5683 22.3543 36.5683 20.0969C36.5683 17.8394 38.334 16.0164 40.5915 16.0164C41.8103 16.0164 42.6984 16.4976 43.3577 17.1123L44.443 16.027C43.5272 15.1495 42.3084 14.4775 40.5999 14.4775C37.5031 14.4775 34.9043 17 34.9043 20.0884C34.9043 23.1853 37.5009 25.6992 40.5999 25.6992C42.2724 25.6992 43.5272 25.1524 44.5193 24.1222C45.5304 23.1111 45.8504 21.6845 45.8504 20.5335C45.8504 20.1753 45.8229 19.8531 45.7656 19.5797H40.5809C40.583 19.5775 40.583 19.5966 40.583 19.5966ZM79.0958 20.7879C78.7927 19.976 77.877 18.4838 75.9989 18.4838C74.1378 18.4838 72.5905 19.9485 72.5905 22.1C72.5905 24.1307 74.1209 25.7162 76.1791 25.7162C77.8325 25.7162 78.7948 24.7051 79.1912 24.1116L77.9639 23.2891C77.5569 23.8932 76.991 24.2896 76.1876 24.2896C75.3758 24.2896 74.8077 23.9208 74.4304 23.1937L79.2654 21.1906C79.2654 21.1928 79.0958 20.7879 79.0958 20.7879ZM74.1654 21.9961C74.1272 20.5992 75.2507 19.8891 76.0541 19.8891C76.6878 19.8891 77.2156 20.2007 77.3958 20.6543L74.1654 21.9961ZM70.2376 25.5H71.8252V14.876H70.2376V25.5ZM67.6304 19.2956H67.5731C67.2149 18.8696 66.5345 18.4838 65.6654 18.4838C63.8615 18.4838 62.1997 20.0714 62.1997 22.1106C62.1997 24.1413 63.8531 25.7098 65.6654 25.7098C66.5239 25.7098 67.2149 25.3219 67.5731 24.8874H67.6304V25.4067C67.6304 26.7866 66.8927 27.5307 65.7036 27.5307C64.7306 27.5307 64.1265 26.8312 63.8806 26.2461L62.5007 26.8227C62.8971 27.7765 63.9548 28.9572 65.7014 28.9572C67.5625 28.9572 69.1396 27.8613 69.1396 25.1884V18.7H67.6388V19.2956C67.641 19.2956 67.6304 19.2956 67.6304 19.2956ZM65.8074 24.2918C64.7115 24.2918 63.7958 23.376 63.7958 22.1106C63.7958 20.8345 64.7115 19.9103 65.8074 19.9103C66.8927 19.9103 67.7342 20.8451 67.7342 22.1106C67.7448 23.376 66.8948 24.2918 65.8074 24.2918ZM86.5296 14.876H82.7332V25.5H84.3209V21.4768H86.5317C88.289 21.4768 90.0165 20.2029 90.0165 18.1807C90.0165 16.1585 88.2953 14.876 86.5296 14.876ZM86.5762 19.993H84.3188V16.3471H86.5762C87.7654 16.3471 88.4374 17.3285 88.4374 18.1701C88.4374 19.0031 87.7569 19.993 86.5762 19.993ZM96.3799 18.4732C95.2267 18.4732 94.0376 18.984 93.5458 20.0969L94.9533 20.6819C95.2564 20.0969 95.8118 19.8976 96.3989 19.8976C97.2214 19.8976 98.0523 20.3894 98.0714 21.2669V21.3793C97.7873 21.2182 97.1642 20.9723 96.418 20.9723C94.8982 20.9723 93.3572 21.8032 93.3572 23.3612C93.3572 24.7878 94.6036 25.7035 95.992 25.7035C97.0582 25.7035 97.6453 25.2223 98.012 24.6648H98.0693V25.4873H99.5997V21.4174C99.5997 19.5224 98.1922 18.4732 96.3799 18.4732ZM96.1806 24.2918C95.6613 24.2918 94.9342 24.0374 94.9342 23.3845C94.9342 22.5621 95.8415 22.2505 96.6152 22.2505C97.3147 22.2505 97.6453 22.401 98.0608 22.6087C97.9463 23.5626 97.1408 24.2833 96.1806 24.2918ZM105.183 18.7L103.36 23.3082H103.303L101.414 18.7H99.7057L102.54 25.1418L100.924 28.7219H102.578L106.938 18.7H105.183ZM90.892 25.5H92.4796V14.876H90.892V25.5Z" fill="#010101"/>
<path fill-rule="evenodd" clip-rule="evenodd" d="M8.86837 6.40361C8.62249 6.66857 8.48047 7.07343 8.48047 7.60336V26.3987C8.48047 26.9287 8.62249 27.3335 8.87685 27.5879L8.94256 27.6451L19.4732 17.1145V16.8792L8.93408 6.34637L8.86837 6.40361Z" fill="url(#paint0_linear_402_116)"/>
<path fill-rule="evenodd" clip-rule="evenodd" d="M22.9772 20.6353L19.4648 17.1229V16.8771L22.9772 13.3647L23.0535 13.4113L27.2081 15.7727C28.3973 16.4425 28.3973 17.549 27.2081 18.2273L23.0535 20.5887L22.9772 20.6353Z" fill="url(#paint1_linear_402_116)"/>
<path fill-rule="evenodd" clip-rule="evenodd" d="M23.0542 20.5887L19.4655 17L8.86914 27.5964C9.25705 28.0118 9.90779 28.0585 10.6349 27.6536L23.0542 20.5887Z" fill="url(#paint2_linear_402_116)"/>
<path fill-rule="evenodd" clip-rule="evenodd" d="M23.0542 13.4114L10.6349 6.35699C9.90779 5.94153 9.25493 5.99876 8.86914 6.41423L19.4655 17L23.0542 13.4114Z" fill="url(#paint3_linear_402_116)"/>
<path opacity="0.2" fill-rule="evenodd" clip-rule="evenodd" d="M22.9772 20.5123L10.6427 27.5201C9.95376 27.9164 9.33905 27.8889 8.94266 27.5285L8.87695 27.5943L8.94266 27.6515C9.33905 28.0097 9.95376 28.0394 10.6427 27.643L23.062 20.5886L22.9772 20.5123Z" fill="black"/>
<path opacity="0.12" fill-rule="evenodd" clip-rule="evenodd" d="M27.2103 18.1044L22.9688 20.5123L23.0451 20.5887L27.1997 18.2273C27.7953 17.8882 28.0878 17.443 28.0878 17C28.0518 17.407 27.7487 17.7928 27.2103 18.1044Z" fill="black"/>
<path opacity="0.25" fill-rule="evenodd" clip-rule="evenodd" d="M10.6341 6.47995L27.208 15.8957C27.7464 16.1988 28.0495 16.5952 28.0962 17C28.0962 16.557 27.8037 16.1119 27.208 15.7727L10.6341 6.357C9.44493 5.67658 8.48047 6.24466 8.48047 7.60339V7.72633C8.48047 6.36548 9.44493 5.808 10.6341 6.47995Z" fill="white"/>
</g>
<defs>
<linearGradient id="paint0_linear_402_116" x1="18.5287" y1="7.40057" x2="1.66033" y2="11.8952" gradientUnits="userSpaceOnUse">
<stop stop-color="#00A0FF"/>
<stop offset="0.00657" stop-color="#00A1FF"/>
<stop offset="0.2601" stop-color="#00BEFF"/>
<stop offset="0.5122" stop-color="#00D2FF"/>
<stop offset="0.7604" stop-color="#00DFFF"/>
<stop offset="1" stop-color="#00E3FF"/>
</linearGradient>
<linearGradient id="paint1_linear_402_116" x1="28.7589" y1="17" x2="8.19153" y2="17" gradientUnits="userSpaceOnUse">
<stop stop-color="#FFE000"/>
<stop offset="0.4087" stop-color="#FFBD00"/>
<stop offset="0.7754" stop-color="#FFA500"/>
<stop offset="1" stop-color="#FF9C00"/>
</linearGradient>
<linearGradient id="paint2_linear_402_116" x1="21.1028" y1="18.9527" x2="7.561" y2="41.7447" gradientUnits="userSpaceOnUse">
<stop stop-color="#FF3A44"/>
<stop offset="1" stop-color="#C31162"/>
</linearGradient>
<linearGradient id="paint3_linear_402_116" x1="6.20086" y1="0.151984" x2="12.2424" y2="10.3312" gradientUnits="userSpaceOnUse">
<stop stop-color="#32A071"/>
<stop offset="0.0685" stop-color="#2DA771"/>
<stop offset="0.4762" stop-color="#15CF74"/>
<stop offset="0.8009" stop-color="#06E775"/>
<stop offset="1" stop-color="#00F076"/>
</linearGradient>
<clipPath id="clip0_402_116">
<rect width="115" height="34" fill="white"/>
</clipPath>
</defs>
</svg>
