<svg width="28" height="28" viewBox="0 0 28 28" fill="none" xmlns="http://www.w3.org/2000/svg">
<path d="M15.7937 13.799C15.7937 18.1982 12.2581 21.7644 7.89698 21.7644C3.53585 21.7644 0 18.1974 0 13.799C0 9.40066 3.53558 5.83337 7.89698 5.83337C12.2584 5.83337 15.7937 9.39985 15.7937 13.799Z" fill="white"/>
<path d="M24.4575 13.799C24.4575 17.9398 22.6897 21.298 20.509 21.298C18.3283 21.298 16.5605 17.9398 16.5605 13.799C16.5605 9.6581 18.3281 6.29993 20.5088 6.29993C22.6895 6.29993 24.4573 9.65703 24.4573 13.799" fill="white"/>
<path d="M27.9998 13.799C27.9998 17.5082 27.3781 20.517 26.6111 20.517C25.844 20.517 25.2227 17.509 25.2227 13.799C25.2227 10.089 25.8443 7.08105 26.6111 7.08105C27.3779 7.08105 27.9998 10.0887 27.9998 13.799Z" fill="white"/>
</svg>
