<svg width="1386" height="174" viewBox="0 0 1386 174" fill="none" xmlns="http://www.w3.org/2000/svg">
<path fill-rule="evenodd" clip-rule="evenodd" d="M174 0H0V153H174V0ZM44 43.5H129.5V54H54.5V98H129.5V108.5H44V43.5Z" fill="white"/>
<path d="M183.5 153V0H227V153H183.5Z" fill="white"/>
<path d="M595 0L552.5 42.5H466V54H595V153H420.5L465 108.5H552.5V98H420.5V13.5L390.5 43.5H346.5V153H302.5V43.5H238L281.5 0H595Z" fill="white"/>
<path d="M649.5 0H604.5V153H649.5V0Z" fill="white"/>
<path d="M659.5 42.5L702 0H833.5V153H659.5V54H702V108.5H789V42.5H659.5Z" fill="white"/>
<path d="M974 0H843.5V42.5H1016.5L974 0Z" fill="white"/>
<path d="M843.5 54H974L1016.5 96.5H843.5V54Z" fill="white"/>
<path d="M974 108.5H843.5V151H1016.5L974 108.5Z" fill="white"/>
<path fill-rule="evenodd" clip-rule="evenodd" d="M1026.5 0V151H1072V75L1171 174H1225L1171 120H1202V0H1026.5ZM1072 75V45.5H1155.5V75H1072Z" fill="white"/>
<path d="M1385.5 0H1211V96.5H1343V109H1255L1211 153H1385.5V54H1255V42.5H1343L1385.5 0Z" fill="white"/>
</svg>
